<svg xmlns="http://www.w3.org/2000/svg" viewBox="0 0 1024 1024" role="img" aria-labelledby="title">
  <title id="title">Curuguay — avatar social claro</title>
  <rect width="1024" height="1024" rx="224" fill="#FFFFFF"/>
  <g transform="translate(-160.17311233885812 677.9300184162063) scale(0.6261510128913443)"><path d="M541 0V540H401V202C401 138 357 96 288 96C228 96 198 128 198 193V540H58V164C58 44 123 -23 239 -23C312 -23 361 3 401 64V0Z" fill="#D93632" transform="translate(710 0) scale(1 -1)"/>
  <path d="M63 540V0H203V287C203 369 244 410 326 410C341 410 351 409 370 406V548C362 549 359 549 353 549C289 549 234 507 203 434V540Z" fill="#1276CC" transform="translate(1048 0) scale(1 -1)"/>
  <path d="M1111 0V178L1251 96V0Z" fill="#D93632" transform="scale(1 -1)"/></g>
</svg>
